<svg xmlns="http://www.w3.org/2000/svg" xmlns:xlink="http://www.w3.org/1999/xlink" contentStyleType="text/css" data-diagram-type="ACTIVITY" height="1113px" preserveAspectRatio="none" style="width:972px;height:1113px;background:#FFFFFF;" version="1.1" viewBox="0 0 972 1113" width="972px" zoomAndPan="magnify"><title>Two skills, one engine: where a PDF and a Markdown note each go</title><defs/><g><g class="title" data-source-line="17"><text fill="#000000" font-family="'Segoe UI'" font-size="15" font-weight="bold" lengthAdjust="spacing" textLength="469.5557" x="249.8406" y="36.1865">Two skills, one engine: where a PDF and a Markdown note each go</text></g><rect fill="none" height="23.9414" style="stroke:none;stroke-width:1;" width="939.2368" x="15" y="53.9688"/><rect fill="#EDF3FB" height="882.3164" style="stroke:#EDF3FB;stroke-width:1;" width="535.2695" x="15" y="53.9688"/><ellipse cx="293.7861" cy="92.9102" fill="#222222" rx="10" ry="10" style="stroke:#222222;stroke-width:1;"/><rect fill="#FFFFFF" height="51.9219" rx="12.5" ry="12.5" style="stroke:#666666;stroke-width:0.5;" width="200.9199" x="193.3262" y="122.9102"/><text fill="#000000" font-family="'Segoe UI'" font-size="12" lengthAdjust="spacing" textLength="97.1016" x="203.3262" y="145.8594">parse - MinerU 4.x</text><text fill="#000000" font-family="'Segoe UI'" font-size="12" lengthAdjust="spacing" textLength="180.9199" x="203.3262" y="161.8203">PDF -&gt; middle_json.json + images</text><rect fill="#FFFFFF" height="51.9219" rx="12.5" ry="12.5" style="stroke:#666666;stroke-width:0.5;" width="342.0781" x="122.7471" y="194.832"/><text fill="#000000" font-family="'Segoe UI'" font-size="12" lengthAdjust="spacing" textLength="322.0781" x="132.7471" y="217.7813">md / normalize - structure, cross-reference links, figure crops</text><text fill="#000000" font-family="'Segoe UI'" font-size="12" lengthAdjust="spacing" textLength="143.2031" x="132.7471" y="233.7422">-&gt; blocks.jsonl + meta.json</text><rect fill="#FFFFFF" height="51.9219" rx="12.5" ry="12.5" style="stroke:#666666;stroke-width:0.5;" width="267.0781" x="160.2471" y="266.7539"/><text fill="#000000" font-family="'Segoe UI'" font-size="12" lengthAdjust="spacing" textLength="247.0781" x="170.2471" y="289.7031">meta - your Zotero library, else arXiv / Crossref</text><text fill="#000000" font-family="'Segoe UI'" font-size="12" lengthAdjust="spacing" textLength="126.1172" x="170.2471" y="305.6641">-&gt; the note's properties</text><polygon fill="#FFFFFF" points="214.3262,338.6758,373.2461,338.6758,385.2461,350.6758,373.2461,362.6758,214.3262,362.6758,202.3262,350.6758,214.3262,338.6758" style="stroke:#666666;stroke-width:0.5;"/><text fill="#000000" font-family="'Segoe UI'" font-size="11" lengthAdjust="spacing" textLength="158.9199" x="214.3262" y="355.2305">translation endpoint configured?</text><text fill="#000000" font-family="'Segoe UI'" font-size="11" lengthAdjust="spacing" textLength="15.7427" x="186.5835" y="347.915">yes</text><text fill="#000000" font-family="'Segoe UI'" font-size="11" lengthAdjust="spacing" textLength="99" x="385.2461" y="347.915">no, or --no-translate</text><rect fill="#FFFFFF" height="51.9219" rx="12.5" ry="12.5" style="stroke:#666666;stroke-width:0.5;" width="272.9375" x="21" y="372.6758"/><text fill="#000000" font-family="'Segoe UI'" font-size="12" lengthAdjust="spacing" textLength="207.2988" x="31" y="395.625">translate - reads each block's own flags</text><text fill="#000000" font-family="'Segoe UI'" font-size="12" lengthAdjust="spacing" textLength="252.9375" x="31" y="411.5859">-&gt; zh / caption_zh written back into blocks.jsonl</text><rect fill="#FFFFFF" height="51.9219" rx="12.5" ry="12.5" style="stroke:#666666;stroke-width:0.5;" width="232.332" x="313.9375" y="372.6758"/><text fill="#000000" font-family="'Segoe UI'" font-size="12" lengthAdjust="spacing" textLength="100.7344" x="323.9375" y="395.625">translation skipped</text><text fill="#000000" font-family="'Segoe UI'" font-size="12" lengthAdjust="spacing" textLength="212.332" x="323.9375" y="411.5859">this is the PDF -&gt; Markdown-only mode</text><polygon fill="#FFFFFF" points="293.7861,430.5977,305.7861,442.5977,293.7861,454.5977,281.7861,442.5977,293.7861,430.5977" style="stroke:#666666;stroke-width:0.5;"/><rect fill="#FFFFFF" height="35.9609" rx="12.5" ry="12.5" style="stroke:#666666;stroke-width:0.5;" width="190.7949" x="198.3887" y="474.5977"/><text fill="#000000" font-family="'Segoe UI'" font-size="12" lengthAdjust="spacing" textLength="170.7949" x="208.3887" y="497.5469">render - blocks.jsonl -&gt; note.md</text><rect fill="#FFFFFF" height="35.9609" rx="12.5" ry="12.5" style="stroke:#666666;stroke-width:0.5;" width="284.5039" x="151.5342" y="530.5586"/><text fill="#000000" font-family="'Segoe UI'" font-size="12" lengthAdjust="spacing" textLength="264.5039" x="161.5342" y="553.5078">verify - structural checks, exits 1 on broken output</text><ellipse cx="293.7861" cy="597.5195" fill="none" rx="11" ry="11" style="stroke:#222222;stroke-width:1;"/><ellipse cx="293.7861" cy="597.5195" fill="#222222" rx="6" ry="6" style="stroke:#222222;stroke-width:1;"/><line style="stroke:#000000;stroke-width:1.5;" x1="15" x2="15" y1="53.9688" y2="936.2852"/><rect fill="#F4F1FB" height="882.3164" style="stroke:#F4F1FB;stroke-width:1;" width="402.502" x="550.2695" y="53.9688"/><ellipse cx="752.5205" cy="628.5195" fill="#222222" rx="10" ry="10" style="stroke:#222222;stroke-width:1;"/><rect fill="#FFFFFF" height="51.9219" rx="12.5" ry="12.5" style="stroke:#666666;stroke-width:0.5;" width="295.2793" x="604.8809" y="658.5195"/><text fill="#000000" font-family="'Segoe UI'" font-size="12" lengthAdjust="spacing" textLength="275.2793" x="614.8809" y="681.4688">md2blocks - segment the note by Markdown syntax</text><text fill="#000000" font-family="'Segoe UI'" font-size="12" lengthAdjust="spacing" textLength="77.2148" x="614.8809" y="697.4297">-&gt; blocks.jsonl</text><rect fill="#FFFFFF" height="51.9219" rx="12.5" ry="12.5" style="stroke:#666666;stroke-width:0.5;" width="272.9375" x="616.0518" y="730.4414"/><text fill="#000000" font-family="'Segoe UI'" font-size="12" lengthAdjust="spacing" textLength="207.2988" x="626.0518" y="753.3906">translate - reads each block's own flags</text><text fill="#000000" font-family="'Segoe UI'" font-size="12" lengthAdjust="spacing" textLength="252.9375" x="626.0518" y="769.3516">-&gt; zh / caption_zh written back into blocks.jsonl</text><rect fill="#FFFFFF" height="35.9609" rx="12.5" ry="12.5" style="stroke:#666666;stroke-width:0.5;" width="190.7949" x="657.123" y="802.3633"/><text fill="#000000" font-family="'Segoe UI'" font-size="12" lengthAdjust="spacing" textLength="170.7949" x="667.123" y="825.3125">render - blocks.jsonl -&gt; note.md</text><rect fill="#FFFFFF" height="35.9609" rx="12.5" ry="12.5" style="stroke:#666666;stroke-width:0.5;" width="284.5039" x="610.2686" y="858.3242"/><text fill="#000000" font-family="'Segoe UI'" font-size="12" lengthAdjust="spacing" textLength="264.5039" x="620.2686" y="881.2734">verify - structural checks, exits 1 on broken output</text><ellipse cx="752.5205" cy="925.2852" fill="none" rx="11" ry="11" style="stroke:#222222;stroke-width:1;"/><ellipse cx="752.5205" cy="925.2852" fill="#222222" rx="6" ry="6" style="stroke:#222222;stroke-width:1;"/><line style="stroke:#000000;stroke-width:1.5;" x1="550.2695" x2="550.2695" y1="53.9688" y2="936.2852"/><line style="stroke:#000000;stroke-width:1.5;" x1="952.7715" x2="952.7715" y1="53.9688" y2="936.2852"/><line style="stroke:#555555;stroke-width:1;" x1="293.7861" x2="293.7861" y1="102.9102" y2="122.9102"/><polygon fill="#555555" points="289.7861,112.9102,293.7861,122.9102,297.7861,112.9102,293.7861,116.9102" style="stroke:#555555;stroke-width:1;"/><line style="stroke:#555555;stroke-width:1;" x1="293.7861" x2="293.7861" y1="174.832" y2="194.832"/><polygon fill="#555555" points="289.7861,184.832,293.7861,194.832,297.7861,184.832,293.7861,188.832" style="stroke:#555555;stroke-width:1;"/><line style="stroke:#555555;stroke-width:1;" x1="293.7861" x2="293.7861" y1="246.7539" y2="266.7539"/><polygon fill="#555555" points="289.7861,256.7539,293.7861,266.7539,297.7861,256.7539,293.7861,260.7539" style="stroke:#555555;stroke-width:1;"/><line style="stroke:#555555;stroke-width:1;" x1="202.3262" x2="157.4688" y1="350.6758" y2="350.6758"/><line style="stroke:#555555;stroke-width:1;" x1="157.4688" x2="157.4688" y1="350.6758" y2="372.6758"/><polygon fill="#555555" points="153.4688,362.6758,157.4688,372.6758,161.4688,362.6758,157.4688,366.6758" style="stroke:#555555;stroke-width:1;"/><line style="stroke:#555555;stroke-width:1;" x1="385.2461" x2="430.1035" y1="350.6758" y2="350.6758"/><line style="stroke:#555555;stroke-width:1;" x1="430.1035" x2="430.1035" y1="350.6758" y2="372.6758"/><polygon fill="#555555" points="426.1035,362.6758,430.1035,372.6758,434.1035,362.6758,430.1035,366.6758" style="stroke:#555555;stroke-width:1;"/><line style="stroke:#555555;stroke-width:1;" x1="157.4688" x2="157.4688" y1="424.5977" y2="442.5977"/><line style="stroke:#555555;stroke-width:1;" x1="157.4688" x2="281.7861" y1="442.5977" y2="442.5977"/><polygon fill="#555555" points="271.7861,438.5977,281.7861,442.5977,271.7861,446.5977,275.7861,442.5977" style="stroke:#555555;stroke-width:1;"/><line style="stroke:#555555;stroke-width:1;" x1="430.1035" x2="430.1035" y1="424.5977" y2="442.5977"/><line style="stroke:#555555;stroke-width:1;" x1="430.1035" x2="305.7861" y1="442.5977" y2="442.5977"/><polygon fill="#555555" points="315.7861,438.5977,305.7861,442.5977,315.7861,446.5977,311.7861,442.5977" style="stroke:#555555;stroke-width:1;"/><line style="stroke:#555555;stroke-width:1;" x1="293.7861" x2="293.7861" y1="318.6758" y2="338.6758"/><polygon fill="#555555" points="289.7861,328.6758,293.7861,338.6758,297.7861,328.6758,293.7861,332.6758" style="stroke:#555555;stroke-width:1;"/><line style="stroke:#555555;stroke-width:1;" x1="293.7861" x2="293.7861" y1="454.5977" y2="474.5977"/><polygon fill="#555555" points="289.7861,464.5977,293.7861,474.5977,297.7861,464.5977,293.7861,468.5977" style="stroke:#555555;stroke-width:1;"/><line style="stroke:#555555;stroke-width:1;" x1="293.7861" x2="293.7861" y1="510.5586" y2="530.5586"/><polygon fill="#555555" points="289.7861,520.5586,293.7861,530.5586,297.7861,520.5586,293.7861,524.5586" style="stroke:#555555;stroke-width:1;"/><line style="stroke:#555555;stroke-width:1;" x1="293.7861" x2="293.7861" y1="566.5195" y2="586.5195"/><polygon fill="#555555" points="289.7861,576.5195,293.7861,586.5195,297.7861,576.5195,293.7861,580.5195" style="stroke:#555555;stroke-width:1;"/><line style="stroke:#555555;stroke-width:1;" x1="752.5205" x2="752.5205" y1="638.5195" y2="658.5195"/><polygon fill="#555555" points="748.5205,648.5195,752.5205,658.5195,756.5205,648.5195,752.5205,652.5195" style="stroke:#555555;stroke-width:1;"/><line style="stroke:#555555;stroke-width:1;" x1="752.5205" x2="752.5205" y1="710.4414" y2="730.4414"/><polygon fill="#555555" points="748.5205,720.4414,752.5205,730.4414,756.5205,720.4414,752.5205,724.4414" style="stroke:#555555;stroke-width:1;"/><line style="stroke:#555555;stroke-width:1;" x1="752.5205" x2="752.5205" y1="782.3633" y2="802.3633"/><polygon fill="#555555" points="748.5205,792.3633,752.5205,802.3633,756.5205,792.3633,752.5205,796.3633" style="stroke:#555555;stroke-width:1;"/><line style="stroke:#555555;stroke-width:1;" x1="752.5205" x2="752.5205" y1="838.3242" y2="858.3242"/><polygon fill="#555555" points="748.5205,848.3242,752.5205,858.3242,756.5205,848.3242,752.5205,852.3242" style="stroke:#555555;stroke-width:1;"/><line style="stroke:#555555;stroke-width:1;" x1="752.5205" x2="752.5205" y1="894.2852" y2="914.2852"/><polygon fill="#555555" points="748.5205,904.2852,752.5205,914.2852,756.5205,904.2852,752.5205,908.2852" style="stroke:#555555;stroke-width:1;"/><text fill="#000000" font-family="'Segoe UI'" font-size="18" lengthAdjust="spacing" textLength="246.7705" x="159.2495" y="73.3926">pdf-to-obsidian   (input: a PDF)</text><text fill="#000000" font-family="'Segoe UI'" font-size="18" lengthAdjust="spacing" textLength="392.502" x="555.2695" y="73.3926">translate-markdown   (input: an English .md note)</text><g class="legend" data-source-line="48"><rect fill="#DDDDDD" height="140.3477" rx="7.5" ry="7.5" style="stroke:#000000;stroke-width:1;" width="462.8467" x="484.3901" y="948.2852"/><text fill="#000000" font-family="'Segoe UI'" font-size="14" lengthAdjust="spacing" textLength="122.5273" x="489.3901" y="968.3926">Both lanes write the</text><text fill="#000000" font-family="'Segoe UI'" font-size="14" font-weight="bold" lengthAdjust="spacing" textLength="122.5957" x="615.7524" y="968.3926">same intermediate</text><text fill="#000000" font-family="'Segoe UI'" font-size="14" lengthAdjust="spacing" textLength="168.8066" x="738.3481" y="968.3926">: blocks.jsonl, a list of typed</text><text fill="#000000" font-family="'Segoe UI'" font-size="14" lengthAdjust="spacing" textLength="407.3809" x="489.3901" y="987.0137">blocks. What gets translated is decided there, by each block's own</text><text fill="#000000" font-family="'Segoe UI'" font-size="14" font-weight="bold" lengthAdjust="spacing" textLength="77.9092" x="489.3901" y="1005.6348">translatable</text><text fill="#000000" font-family="'Segoe UI'" font-size="14" lengthAdjust="spacing" textLength="322.3008" x="571.1343" y="1005.6348">flag - set by the segmenter that produced the block:</text><text fill="#000000" font-family="'Segoe UI'" font-size="14" lengthAdjust="spacing" textLength="452.8467" x="489.3901" y="1024.2559">MinerU's block types on the PDF side, Markdown syntax on the note side.</text><text fill="#000000" font-family="'Segoe UI'" font-size="14" lengthAdjust="spacing" textLength="382.9287" x="489.3901" y="1042.877">That is why translating a PDF's note through its work directory</text><text fill="#000000" font-family="'Segoe UI'" font-size="14" lengthAdjust="spacing" textLength="4.2246" x="489.3901" y="1061.498">(</text><text fill="#000000" font-family="'Segoe UI'" font-size="14" lengthAdjust="spacing" text-decoration="line-through" textLength="125.166" x="493.6147" y="1061.498">stage translate, then</text><text fill="#000000" font-family="'Segoe UI'" font-size="14" lengthAdjust="spacing" textLength="259.2803" x="622.6157" y="1061.498">stage render) keeps the finer typing, while</text><text fill="#000000" font-family="'Segoe UI'" font-size="14" lengthAdjust="spacing" textLength="247.5156" x="489.3901" y="1080.1191">re-segmenting a finished note does not.</text></g><!--SRC=[jLLDRnit4BtlhnWa1ykgLgdJf43a8gs_10I9NQEnaQANW5hExhBQ9HSaPNa3__Y-uKgoREJGInQ282qVtxoPUKCUq1VdbsNZrkHAYZLJN3iAIzCqOKf_iTNiQMrYFIFgLcr3AWIEuTLwisigBxC3-iXT9CltaQ9BD1LRzYgofXqqt5KKXbLjLELLIo6gFf3dEnFKek4fcAx-lBcOaNPa7HXLoqysZFx05Xz5oM-o-FvmHjUDil7syXCYhHejS4jhRoA3RG2bqCQ6o4fBdlkI9gHisZJaj_Qgwv2pvyxv66X-yk7JnVaqor0JswaakbRQhOsjg5HDuBqLpQLQDN7kRBmIvIy-S-MORZ-ys0ETUE_MPwvndbw-JS_-OX7DdOdzgVEe_0RrQtg-WpetgdLM_p_mgIgMbNShgpV8UNhsa5SkylTGv_EVdwFs8vwzEtlzxcGFSOqEcMYSVG8xISyUxCR4XgLMdyqtfgEtMHRb3Tti73WXPvdOLiRoZDOrUoP5r-Vpr3D5byelqGehNW5E5JLLBiiUNbwSpt-PdpvqkioZozqY61Z84j48mLTnDh0SFcJ9JTaCWW9JJfS8v6_fpVG-aoZvUsgDrWr__JSuEvKl-ebCgoeEnzcirVGAeNsh6iaWXvtzgeWhpnCgl0iXzrn2iosO6cENoASq5PPbjGiPw1UDAvOXCJUWRZcgz4VOyHkSlLjv-WVvUGUIXLU-dn33TwJyt-OE2iua5289d_XOYd4Gg4CCHYD4gYbf5BsoeL7I5vHKTyxOI8MpWoJz- -4mEQEUms56DDlY9J6FmGb3WPDYq4lPoqPLAOrlDNGKgXFoh_WZunT1je2RC7Wu4_OJFSwI_f5rQB2dFBSktqLx4bkqmWgOI9t5sWJ2HrBSD6VR_noaFRLECwYjDcKsyyFHbJ-jCFP8TQQjHe7ls9kotskRQgYekP0-yRt1y1_1VxJmRebKt2h2ESTmZEl4OlCtyoDORASxRxTct7EPfGjRDIRKX90fzAFdMlrwq2OAk6ePxTYsZnRzexb3RwEwV-uM9F0ZE_IZ2zWmRWXDtbHrHCTFNQm9vpY7uUXEbHYFWvoYKCU-PKnmvF5uzaGGJczCHOZfzkh59hHTfo-rYhY786DNA2q6qbmOpUdCbqb5gP-N3IJZyNQJN4pZSQfawbIK7I9lqpGKAKeap9jU5GFlG3O3pt2YW3QzIHg356NhOfnCqF2irrj0ie8Wfc2waI2GlwxxNK9o2QMZ304IEDOukwkQfFXoo-7Yz5n4vtimZF8StgluiHwJOUQtxuUU7zAIkHi6hHJveXgH9WXj6WQHvtoJ_200A7YS1uVZxkQaPYgpEFJvFm00]--></g></svg>